<?xml version="1.0" encoding="UTF-8"?>
<svg enable-background="new 0 0 1728 1296" version="1.1" viewBox="0 0 1728 1296" xmlns="http://www.w3.org/2000/svg" xmlns:xlink="http://www.w3.org/1999/xlink">
 <style type="text/css">.st0{fill:none;stroke:#000000;stroke-miterlimit:10;} .st1{fill:url(#d);stroke:#CF1111;stroke-miterlimit:10;} .st2{fill:url(#c);stroke:#CF1111;stroke-miterlimit:10;} .st3{stroke:#000000;stroke-miterlimit:10;} .st4{stroke:#000000;stroke-width:18;stroke-miterlimit:10;} .st5{fill:url(#b);stroke:#000000;stroke-width:18;stroke-miterlimit:10;} .st6{fill:url(#a);stroke:#EB1717;stroke-width:4;stroke-miterlimit:10;}</style>
 <defs>
  <circle id="e" cx="808.46" cy="604.33" r="315.5"/>
 </defs>
 <clipPath>
  <use xlink:href="#e"/>
 </clipPath>
 <circle class="st0" cx="808.46" cy="604.33" r="315.5"/>
 <linearGradient id="d" x1="492.97" x2="493.38" y1="607.53" y2="607.43" gradientUnits="userSpaceOnUse">
  <stop stop-color="#FF000D" offset="0"/>
  <stop stop-color="#FC010C" offset=".2818"/>
  <stop stop-color="#F2050B" offset=".4938"/>
  <stop stop-color="#E20B08" offset=".6825"/>
  <stop stop-color="#D90F06" offset=".7619"/>
  <stop stop-color="#D41105" offset=".7935"/>
  <stop stop-color="#CE1304" offset=".8289"/>
  <stop stop-color="#B31E00" offset="1"/>
 </linearGradient>
 <path class="st1" d="m492.96 608.03c0.19-0.33 0.39-0.65 0.58-0.99h-0.58v0.99z"/>
 <linearGradient id="c" x1="577.16" x2="897.7" y1="537.02" y2="458.89" gradientUnits="userSpaceOnUse">
  <stop stop-color="#FF000D" offset="0"/>
  <stop stop-color="#FC010C" offset=".2818"/>
  <stop stop-color="#F2050B" offset=".4938"/>
  <stop stop-color="#E20B08" offset=".6825"/>
  <stop stop-color="#D90F06" offset=".7619"/>
  <stop stop-color="#D41105" offset=".7935"/>
  <stop stop-color="#CE1304" offset=".8289"/>
  <stop stop-color="#B31E00" offset="1"/>
 </linearGradient>
 <path class="st2" d="m1122.8 603.15 1.18 1.18c0-174.25-141.25-315.5-315.5-315.5l0.62 0.62c-0.39-0.03-0.78-0.05-1.16-0.08l0.54-0.54c-174.25 0-315.5 141.25-315.5 315.5l5.29-5.29c-1.56 2.65-3.13 5.31-4.7 7.99l630.42-2.18c-0.41-0.56-0.8-1.13-1.19-1.7z"/>
 <line class="st3" x1="1120.2" x2="1121.2" y1="603.25" y2="603.25"/>
 <line class="st4" x1="1124" x2="492.96" y1="604.33" y2="607.04"/>
 <linearGradient id="b" x1="713.46" x2="926.72" y1="609.87" y2="609.87" gradientUnits="userSpaceOnUse">
  <stop stop-color="#fff" offset="0"/>
  <stop stop-color="#FDFDFD" offset=".3726"/>
  <stop stop-color="#F6F6F6" offset=".5069"/>
  <stop stop-color="#EBEBEB" offset=".6026"/>
  <stop stop-color="#DADADA" offset=".68"/>
  <stop stop-color="#C4C4C4" offset=".7463"/>
  <stop stop-color="#A8A8A8" offset=".805"/>
  <stop stop-color="#888" offset=".8581"/>
  <stop stop-color="#626262" offset=".9069"/>
  <stop stop-color="#373737" offset=".9523"/>
  <stop stop-color="#090909" offset=".9926"/>
  <stop offset="1"/>
 </linearGradient>
 <circle class="st5" cx="808.46" cy="609.87" r="95"/>
 <linearGradient id="a" x1="739.67" x2="911.87" y1="612.06" y2="606.6" gradientUnits="userSpaceOnUse">
  <stop stop-color="#fff" offset="0"/>
  <stop stop-color="#FDFDFD" offset=".386"/>
  <stop stop-color="#F5F5F5" offset=".5698"/>
  <stop stop-color="#E8E8E8" offset=".7107"/>
  <stop stop-color="#D6D6D6" offset=".8299"/>
  <stop stop-color="#BEBEBE" offset=".9342"/>
  <stop stop-color="#ABABAB" offset="1"/>
 </linearGradient>
 <circle class="st6" cx="808.69" cy="609.87" r="70"/>
</svg>
